<mxfile host="Electron" agent="Mozilla/5.0 (X11; Linux x86_64) AppleWebKit/537.36 (KHTML, like Gecko) draw.io/28.0.6 Chrome/138.0.7204.185 Electron/37.2.6 Safari/537.36" version="28.0.6">
  <diagram name="Page-1" id="-pFX3qMsSeDtxmAZtRyt">
    <mxGraphModel dx="2066" dy="870" grid="1" gridSize="10" guides="1" tooltips="1" connect="1" arrows="1" fold="1" page="1" pageScale="1" pageWidth="1169" pageHeight="827" math="0" shadow="0">
      <root>
        <mxCell id="0" />
        <mxCell id="1" parent="0" />
        <mxCell id="IE-dIcP5PXMn-v0TP9TS-36" value="" style="rounded=0;whiteSpace=wrap;html=1;strokeColor=none;opacity=15;fillColor=#FF8000;" parent="1" vertex="1">
          <mxGeometry x="40" y="560" width="920" height="280" as="geometry" />
        </mxCell>
        <mxCell id="IE-dIcP5PXMn-v0TP9TS-35" value="" style="rounded=0;whiteSpace=wrap;html=1;strokeColor=none;opacity=15;fillColor=#00FFFF;" parent="1" vertex="1">
          <mxGeometry x="40" y="240" width="920" height="280" as="geometry" />
        </mxCell>
        <mxCell id="IE-dIcP5PXMn-v0TP9TS-34" value="" style="rounded=0;whiteSpace=wrap;html=1;strokeColor=none;opacity=15;fillColor=#FF33FF;" parent="1" vertex="1">
          <mxGeometry x="40" y="40" width="920" height="160" as="geometry" />
        </mxCell>
        <mxCell id="IE-dIcP5PXMn-v0TP9TS-2" value="&lt;div style=&quot;&quot;&gt;&lt;span style=&quot;font-size: 16px;&quot;&gt;Standard&lt;/span&gt;&lt;/div&gt;&lt;div style=&quot;&quot;&gt;&lt;span style=&quot;font-size: 12px;&quot;&gt;layout/page.html&lt;/span&gt;&lt;/div&gt;" style="swimlane;childLayout=stackLayout;horizontal=1;startSize=60;horizontalStack=0;rounded=1;fontSize=14;fontStyle=0;strokeWidth=2;resizeParent=0;resizeLast=1;shadow=0;dashed=0;align=center;arcSize=4;whiteSpace=wrap;html=1;strokeColor=#004C99;" parent="1" vertex="1">
          <mxGeometry x="80" y="280" width="160" height="120" as="geometry" />
        </mxCell>
        <mxCell id="IE-dIcP5PXMn-v0TP9TS-3" value="header&lt;div&gt;&amp;gt;&amp;gt; content &amp;lt;&amp;lt;&lt;/div&gt;&lt;div&gt;footer&lt;/div&gt;" style="align=left;strokeColor=none;fillColor=none;spacingLeft=4;spacingRight=4;fontSize=12;verticalAlign=top;resizable=0;rotatable=0;part=1;html=1;whiteSpace=wrap;" parent="IE-dIcP5PXMn-v0TP9TS-2" vertex="1">
          <mxGeometry y="60" width="160" height="60" as="geometry" />
        </mxCell>
        <mxCell id="IE-dIcP5PXMn-v0TP9TS-13" style="edgeStyle=orthogonalEdgeStyle;rounded=1;orthogonalLoop=1;jettySize=auto;html=1;exitX=0.5;exitY=1;exitDx=0;exitDy=0;entryX=0.5;entryY=0;entryDx=0;entryDy=0;endSize=10;startSize=10;endArrow=block;endFill=0;strokeWidth=2;curved=0;flowAnimation=0;dashed=1;dashPattern=1 4;" parent="1" source="IE-dIcP5PXMn-v0TP9TS-5" target="IE-dIcP5PXMn-v0TP9TS-2" edge="1">
          <mxGeometry relative="1" as="geometry" />
        </mxCell>
        <mxCell id="IE-dIcP5PXMn-v0TP9TS-5" value="&lt;font style=&quot;font-size: 16px;&quot;&gt;Full Page Layouts&lt;/font&gt;&lt;div&gt;base/html5.html&lt;/div&gt;" style="rounded=1;arcSize=10;whiteSpace=wrap;html=1;align=center;strokeWidth=2;strokeColor=#4C0099;" parent="1" vertex="1">
          <mxGeometry x="80" y="80" width="160" height="80" as="geometry" />
        </mxCell>
        <mxCell id="IE-dIcP5PXMn-v0TP9TS-6" value="&lt;span style=&quot;font-size: 16px;&quot;&gt;Partial Layouts&lt;/span&gt;&lt;br&gt;&lt;div&gt;base/raw.html&lt;/div&gt;" style="rounded=1;arcSize=10;whiteSpace=wrap;html=1;align=center;strokeWidth=2;strokeColor=#4C0099;" parent="1" vertex="1">
          <mxGeometry x="560" y="80" width="160" height="80" as="geometry" />
        </mxCell>
        <mxCell id="IE-dIcP5PXMn-v0TP9TS-14" value="&lt;div&gt;&lt;span style=&quot;font-size: 16px;&quot;&gt;Header&lt;/span&gt;&lt;/div&gt;&lt;div&gt;components/header.html&lt;/div&gt;" style="rounded=1;arcSize=10;whiteSpace=wrap;html=1;align=center;strokeWidth=2;strokeColor=#994C00;" parent="1" vertex="1">
          <mxGeometry x="340" y="280" width="160" height="80" as="geometry" />
        </mxCell>
        <mxCell id="IE-dIcP5PXMn-v0TP9TS-16" style="edgeStyle=orthogonalEdgeStyle;rounded=1;orthogonalLoop=1;jettySize=auto;html=1;exitX=0;exitY=0.5;exitDx=0;exitDy=0;entryX=1;entryY=0.25;entryDx=0;entryDy=0;endSize=6;startSize=6;endArrow=halfCircle;endFill=0;strokeWidth=2;curved=0;strokeColor=#B3B3B3;" parent="1" source="IE-dIcP5PXMn-v0TP9TS-14" target="IE-dIcP5PXMn-v0TP9TS-3" edge="1">
          <mxGeometry relative="1" as="geometry">
            <mxPoint x="170" y="210" as="sourcePoint" />
            <mxPoint x="170" y="290" as="targetPoint" />
          </mxGeometry>
        </mxCell>
        <mxCell id="IE-dIcP5PXMn-v0TP9TS-20" value="&lt;div style=&quot;&quot;&gt;&lt;span style=&quot;font-size: 16px;&quot;&gt;Full Page View&lt;/span&gt;&lt;/div&gt;" style="swimlane;childLayout=stackLayout;horizontal=1;startSize=60;horizontalStack=0;rounded=1;fontSize=14;fontStyle=0;strokeWidth=3;resizeParent=0;resizeLast=1;shadow=0;dashed=0;align=center;arcSize=4;whiteSpace=wrap;html=1;strokeColor=#00FF00;perimeterSpacing=0;glass=0;" parent="1" vertex="1">
          <mxGeometry x="80" y="640" width="160" height="120" as="geometry" />
        </mxCell>
        <mxCell id="IE-dIcP5PXMn-v0TP9TS-21" value="Renders the full page" style="align=left;strokeColor=none;fillColor=none;spacingLeft=4;spacingRight=4;fontSize=12;verticalAlign=top;resizable=0;rotatable=0;part=1;html=1;whiteSpace=wrap;" parent="IE-dIcP5PXMn-v0TP9TS-20" vertex="1">
          <mxGeometry y="60" width="160" height="60" as="geometry" />
        </mxCell>
        <mxCell id="IE-dIcP5PXMn-v0TP9TS-22" style="edgeStyle=orthogonalEdgeStyle;rounded=1;orthogonalLoop=1;jettySize=auto;html=1;exitX=0.5;exitY=1;exitDx=0;exitDy=0;entryX=0.5;entryY=0;entryDx=0;entryDy=0;endSize=10;startSize=10;endArrow=block;endFill=0;strokeWidth=2;curved=0;flowAnimation=0;dashed=1;dashPattern=1 4;" parent="1" source="IE-dIcP5PXMn-v0TP9TS-3" target="IE-dIcP5PXMn-v0TP9TS-20" edge="1">
          <mxGeometry relative="1" as="geometry">
            <mxPoint x="170" y="210" as="sourcePoint" />
            <mxPoint x="170" y="370" as="targetPoint" />
          </mxGeometry>
        </mxCell>
        <mxCell id="IE-dIcP5PXMn-v0TP9TS-23" value="&lt;div style=&quot;&quot;&gt;&lt;span style=&quot;font-size: 16px;&quot;&gt;Component View&lt;/span&gt;&lt;/div&gt;" style="swimlane;childLayout=stackLayout;horizontal=1;startSize=60;horizontalStack=0;rounded=1;fontSize=14;fontStyle=0;strokeWidth=3;resizeParent=0;resizeLast=1;shadow=0;dashed=0;align=center;arcSize=4;whiteSpace=wrap;html=1;strokeColor=#00FF00;perimeterSpacing=0;glass=0;" parent="1" vertex="1">
          <mxGeometry x="560" y="600" width="160" height="200" as="geometry" />
        </mxCell>
        <mxCell id="IE-dIcP5PXMn-v0TP9TS-24" value="Renders a specific component" style="align=left;strokeColor=none;fillColor=none;spacingLeft=4;spacingRight=4;fontSize=12;verticalAlign=top;resizable=0;rotatable=0;part=1;html=1;whiteSpace=wrap;" parent="IE-dIcP5PXMn-v0TP9TS-23" vertex="1">
          <mxGeometry y="60" width="160" height="140" as="geometry" />
        </mxCell>
        <mxCell id="IE-dIcP5PXMn-v0TP9TS-25" style="edgeStyle=orthogonalEdgeStyle;rounded=1;orthogonalLoop=1;jettySize=auto;html=1;exitX=0.5;exitY=1;exitDx=0;exitDy=0;entryX=0.5;entryY=0;entryDx=0;entryDy=0;endSize=10;startSize=10;endArrow=block;endFill=0;strokeWidth=2;curved=0;flowAnimation=0;dashed=1;dashPattern=1 4;" parent="1" source="IE-dIcP5PXMn-v0TP9TS-6" target="IE-dIcP5PXMn-v0TP9TS-23" edge="1">
          <mxGeometry relative="1" as="geometry">
            <mxPoint x="130" y="250" as="sourcePoint" />
            <mxPoint x="130" y="370" as="targetPoint" />
          </mxGeometry>
        </mxCell>
        <mxCell id="IE-dIcP5PXMn-v0TP9TS-26" style="edgeStyle=orthogonalEdgeStyle;rounded=1;orthogonalLoop=1;jettySize=auto;html=1;exitX=1;exitY=0.5;exitDx=0;exitDy=0;entryX=0;entryY=0.25;entryDx=0;entryDy=0;endSize=6;startSize=6;endArrow=halfCircle;endFill=0;strokeWidth=2;curved=0;strokeColor=#B3B3B3;" parent="1" source="IE-dIcP5PXMn-v0TP9TS-14" target="IE-dIcP5PXMn-v0TP9TS-24" edge="1">
          <mxGeometry relative="1" as="geometry">
            <mxPoint x="370" y="410" as="sourcePoint" />
            <mxPoint x="250" y="445" as="targetPoint" />
          </mxGeometry>
        </mxCell>
        <mxCell id="IE-dIcP5PXMn-v0TP9TS-27" value="&lt;div&gt;&lt;span style=&quot;font-size: 16px;&quot;&gt;Footer&lt;/span&gt;&lt;/div&gt;&lt;div&gt;components/footer.html&lt;/div&gt;" style="rounded=1;arcSize=10;whiteSpace=wrap;html=1;align=center;strokeWidth=2;strokeColor=#994C00;" parent="1" vertex="1">
          <mxGeometry x="300" y="400" width="160" height="80" as="geometry" />
        </mxCell>
        <mxCell id="IE-dIcP5PXMn-v0TP9TS-28" style="edgeStyle=orthogonalEdgeStyle;rounded=1;orthogonalLoop=1;jettySize=auto;html=1;exitX=0;exitY=0.5;exitDx=0;exitDy=0;entryX=1;entryY=0.75;entryDx=0;entryDy=0;endSize=6;startSize=6;endArrow=halfCircle;endFill=0;strokeWidth=2;curved=0;strokeColor=#B3B3B3;" parent="1" source="IE-dIcP5PXMn-v0TP9TS-27" target="IE-dIcP5PXMn-v0TP9TS-3" edge="1">
          <mxGeometry relative="1" as="geometry">
            <mxPoint x="330" y="370" as="sourcePoint" />
            <mxPoint x="250" y="365" as="targetPoint" />
          </mxGeometry>
        </mxCell>
        <mxCell id="IE-dIcP5PXMn-v0TP9TS-29" style="edgeStyle=orthogonalEdgeStyle;rounded=1;orthogonalLoop=1;jettySize=auto;html=1;exitX=1;exitY=0.5;exitDx=0;exitDy=0;entryX=0;entryY=0.5;entryDx=0;entryDy=0;endSize=6;startSize=6;endArrow=halfCircle;endFill=0;strokeWidth=2;curved=0;strokeColor=#B3B3B3;" parent="1" source="IE-dIcP5PXMn-v0TP9TS-27" target="IE-dIcP5PXMn-v0TP9TS-24" edge="1">
          <mxGeometry relative="1" as="geometry">
            <mxPoint x="330" y="570" as="sourcePoint" />
            <mxPoint x="250" y="475" as="targetPoint" />
          </mxGeometry>
        </mxCell>
        <mxCell id="IE-dIcP5PXMn-v0TP9TS-30" value="&lt;div&gt;&lt;span style=&quot;font-size: 16px;&quot;&gt;Product Detail&lt;/span&gt;&lt;/div&gt;&lt;div&gt;co.../prod.../p...Detail.html&lt;/div&gt;" style="rounded=1;arcSize=10;whiteSpace=wrap;html=1;align=center;strokeWidth=2;strokeColor=#994C00;" parent="1" vertex="1">
          <mxGeometry x="320" y="720" width="160" height="80" as="geometry" />
        </mxCell>
        <mxCell id="IE-dIcP5PXMn-v0TP9TS-31" style="edgeStyle=entityRelationEdgeStyle;rounded=1;orthogonalLoop=1;jettySize=auto;html=1;exitX=0;exitY=0.5;exitDx=0;exitDy=0;entryX=1;entryY=0.5;entryDx=0;entryDy=0;endSize=6;startSize=6;endArrow=halfCircle;endFill=0;strokeWidth=2;strokeColor=#B3B3B3;" parent="1" source="IE-dIcP5PXMn-v0TP9TS-30" target="IE-dIcP5PXMn-v0TP9TS-21" edge="1">
          <mxGeometry relative="1" as="geometry">
            <mxPoint x="310" y="570" as="sourcePoint" />
            <mxPoint x="250" y="515" as="targetPoint" />
          </mxGeometry>
        </mxCell>
        <mxCell id="IE-dIcP5PXMn-v0TP9TS-32" style="edgeStyle=entityRelationEdgeStyle;rounded=1;orthogonalLoop=1;jettySize=auto;html=1;exitX=1;exitY=0.5;exitDx=0;exitDy=0;entryX=0;entryY=0.75;entryDx=0;entryDy=0;endSize=6;startSize=6;endArrow=halfCircle;endFill=0;strokeWidth=2;strokeColor=#B3B3B3;" parent="1" source="IE-dIcP5PXMn-v0TP9TS-30" target="IE-dIcP5PXMn-v0TP9TS-24" edge="1">
          <mxGeometry relative="1" as="geometry">
            <mxPoint x="330" y="770" as="sourcePoint" />
            <mxPoint x="250" y="740" as="targetPoint" />
          </mxGeometry>
        </mxCell>
        <mxCell id="IE-dIcP5PXMn-v0TP9TS-37" value="Base Level" style="text;html=1;align=right;verticalAlign=middle;whiteSpace=wrap;rounded=0;fontSize=22;textOpacity=50;" parent="1" vertex="1">
          <mxGeometry x="760" y="40" width="190" height="40" as="geometry" />
        </mxCell>
        <mxCell id="IE-dIcP5PXMn-v0TP9TS-38" value="Global Level" style="text;html=1;align=right;verticalAlign=middle;whiteSpace=wrap;rounded=0;fontSize=22;textOpacity=50;" parent="1" vertex="1">
          <mxGeometry x="760" y="240" width="190" height="40" as="geometry" />
        </mxCell>
        <mxCell id="IE-dIcP5PXMn-v0TP9TS-39" value="Local Level" style="text;html=1;align=right;verticalAlign=middle;whiteSpace=wrap;rounded=0;fontSize=22;textOpacity=50;" parent="1" vertex="1">
          <mxGeometry x="760" y="560" width="190" height="40" as="geometry" />
        </mxCell>
        <mxCell id="IE-dIcP5PXMn-v0TP9TS-40" value="On HTMX request, renders component. On default get, throws 404" style="text;html=1;align=left;verticalAlign=middle;whiteSpace=wrap;rounded=0;fontSize=14;textOpacity=50;" parent="1" vertex="1">
          <mxGeometry x="730" y="95" width="190" height="50" as="geometry" />
        </mxCell>
        <mxCell id="IE-dIcP5PXMn-v0TP9TS-41" value="On HTMX request, renders only body?" style="text;html=1;align=left;verticalAlign=middle;whiteSpace=wrap;rounded=0;fontSize=14;textOpacity=50;" parent="1" vertex="1">
          <mxGeometry x="250" y="95" width="190" height="50" as="geometry" />
        </mxCell>
        <mxCell id="IE-dIcP5PXMn-v0TP9TS-42" value="EXTENDS" style="text;html=1;align=center;verticalAlign=middle;whiteSpace=wrap;rounded=0;fontSize=14;textOpacity=50;" parent="1" vertex="1">
          <mxGeometry x="160" y="200" width="80" height="40" as="geometry" />
        </mxCell>
        <mxCell id="IE-dIcP5PXMn-v0TP9TS-44" value="INCLUDES" style="text;html=1;align=center;verticalAlign=middle;whiteSpace=wrap;rounded=0;fontSize=14;textOpacity=50;" parent="1" vertex="1">
          <mxGeometry x="430" y="520" width="80" height="40" as="geometry" />
        </mxCell>
        <mxCell id="IE-dIcP5PXMn-v0TP9TS-49" value="&lt;span style=&quot;font-size: 16px;&quot;&gt;Django View&lt;/span&gt;" style="rounded=1;arcSize=10;whiteSpace=wrap;html=1;align=center;strokeWidth=3;strokeColor=#00FF00;" parent="1" vertex="1">
          <mxGeometry x="1000" y="760" width="120" height="40" as="geometry" />
        </mxCell>
        <mxCell id="IE-dIcP5PXMn-v0TP9TS-50" value="&lt;div&gt;&lt;span style=&quot;font-size: 16px;&quot;&gt;Component&lt;/span&gt;&lt;/div&gt;" style="rounded=1;arcSize=10;whiteSpace=wrap;html=1;align=center;strokeWidth=2;strokeColor=#994C00;" parent="1" vertex="1">
          <mxGeometry x="1000" y="700" width="120" height="40" as="geometry" />
        </mxCell>
        <mxCell id="IE-dIcP5PXMn-v0TP9TS-53" value="&lt;span style=&quot;font-size: 16px;&quot;&gt;Layout&lt;/span&gt;" style="rounded=1;arcSize=10;whiteSpace=wrap;html=1;align=center;strokeWidth=2;strokeColor=#004C99;" parent="1" vertex="1">
          <mxGeometry x="1000" y="640" width="120" height="40" as="geometry" />
        </mxCell>
        <mxCell id="IE-dIcP5PXMn-v0TP9TS-54" value="&lt;span style=&quot;font-size: 16px;&quot;&gt;Base Layout&lt;/span&gt;" style="rounded=1;arcSize=10;whiteSpace=wrap;html=1;align=center;strokeWidth=2;strokeColor=#4C0099;" parent="1" vertex="1">
          <mxGeometry x="1000" y="580" width="120" height="40" as="geometry" />
        </mxCell>
        <mxCell id="FYFN_1nGf4n_xjmlkhE9-1" value="" style="rounded=0;whiteSpace=wrap;html=1;strokeColor=default;opacity=15;fillColor=#001933;" vertex="1" parent="1">
          <mxGeometry width="1160" height="880" as="geometry" />
        </mxCell>
      </root>
    </mxGraphModel>
  </diagram>
</mxfile>
